HIERARCHY
ROOT pelvis
{
  OFFSET 0 100 0
  CHANNELS 6 Xposition Yposition Zposition Zrotation Xrotation Yrotation
  JOINT pelvis_right_femur
  {
    OFFSET -10.78128 -3.44521 -0.5502486
    CHANNELS 3 Zrotation Xrotation Yrotation
    JOINT right_femur_tibia
    {
      OFFSET -0.8047443 -44.0398 -0.1307829
      CHANNELS 3 Zrotation Xrotation Yrotation
      JOINT right_tibia_foot
      {
        OFFSET 3.006224 -47.83518 -5
        CHANNELS 3 Zrotation Xrotation Yrotation
        End Site
        {
          OFFSET 0 -5 15
        }
      }
    }
  }
  JOINT pelvis_left_femur
  {
    OFFSET 10.78128 -3.44521 -0.5502486
    CHANNELS 3 Zrotation Xrotation Yrotation
    JOINT left_femur_tibia
    {
      OFFSET 0.8047443 -44.0398 -0.1307829
      CHANNELS 3 Zrotation Xrotation Yrotation
      JOINT left_tibia_foot
      {
        OFFSET -4.370144 -48.10324 -4.275266
        CHANNELS 3 Zrotation Xrotation Yrotation
        End Site
        {
          OFFSET 0 -5 15
        }
      }
    }
  }
  JOINT pelvis_spine1
  {
    OFFSET 0 6.468898 -3.129235
    CHANNELS 3 Zrotation Xrotation Yrotation
    JOINT spine1
    {
      OFFSET 0 23.15396 4.99043
      CHANNELS 3 Zrotation Xrotation Yrotation
      JOINT spine2
      {
        OFFSET 0 20.79997 -5.064912
        CHANNELS 3 Zrotation Xrotation Yrotation
        JOINT neck
        {
          OFFSET 0 14.38658 9.616178
          CHANNELS 3 Zrotation Xrotation Yrotation
          End Site
          {
            OFFSET 0 20 0
          }
        }
      }
      JOINT right_manubrium
      {
        OFFSET -5.722621 16.35077 3.967754
        CHANNELS 3 Zrotation Xrotation Yrotation
        JOINT right_clavicle
        {
          OFFSET -13.16364 1.694482 -4.693211
          CHANNELS 3 Zrotation Xrotation Yrotation
          JOINT right_humerus
          {
            OFFSET -28.5034 -0.3100689 -2.792744
            CHANNELS 3 Zrotation Xrotation Yrotation
            JOINT right_radius
            {
              OFFSET -25.15693 0.02248979 -1.271978
              CHANNELS 3 Zrotation Xrotation Yrotation
              End Site
              {
                OFFSET -15 0 0
              }
            }
          }
        }
      }
      JOINT left_manubrium
      {
        OFFSET 5.722621 16.35077 3.967754
        CHANNELS 3 Zrotation Xrotation Yrotation
        JOINT left_clavicle
        {
          OFFSET 13.16364 1.694482 -4.693211
          CHANNELS 3 Zrotation Xrotation Yrotation
          JOINT left_humerus
          {
            OFFSET 29.39168 -1.063119 -2.237045
            CHANNELS 3 Zrotation Xrotation Yrotation
            JOINT left_radius
            {
              OFFSET 24.59957 -0.9528479 0.9047498
              CHANNELS 3 Zrotation Xrotation Yrotation
              End Site
              {
                OFFSET 15 -0 -0
              }
            }
          }
        }
      }
    }
  }
}
MOTION
Frames: 11
Frame Time: 0.0416666666667
726.2695 101.6781 2652.744 -0.6750816 -0.2748803 12.0173 3.87036 -31.33632 -0.2080663 -0 17.04182 -0 -6.921528 1.440828 -1.290612 -5.639316 14.37001 -12.5451 -0 12.13937 -0 2.560082 -21.56322 16.5214 -1.859375 -0.5003927 2.636333 2.837556 10.34606 -8.642383 0.6181944 20.68332 8.545598 3.929786 -25.08845 9.086503 2.599189 -17.93165 11.89381 90.61157 29.94147 -22.44619 -0 0 8.432012 -16.67836 10.80486 9.032904 7.426448 -24.31223 -3.670131 -85.56488 19.51636 11.94493 0 0 -28.47085 10.50647 12.3985 1.127014
727.4987 100.6818 2658.062 -0.06872517 -1.014815 12.35187 3.314541 -30.52456 -1.90186 -0 12.30994 -0 -7.162366 3.408512 -1.39189 -5.816065 15.43156 -10.48132 -0 14.63061 -0 1.158426 -21.80648 15.07448 -1.783547 -0.6496838 2.603903 2.607491 10.57912 -8.644324 0.5916598 20.95426 8.195757 3.703195 -24.20715 8.55621 1.472956 -17.63636 11.76704 92.10316 27.76883 -23.55787 -0 0 6.812155 -18.11799 10.74133 9.187466 7.588 -25.38508 -4.362805 -84.39297 18.66396 10.03688 0 0 -30.65876 10.15696 12.14483 1.080484
728.7769 99.65576 2664.052 0.6845672 -2.088921 12.70188 2.873169 -28.59193 -3.273494 -0 8.285489 -0 -7.392929 5.037217 -1.789313 -5.965442 16.44877 -8.304934 -0 17.95129 -0 0.001982725 -21.31056 13.92611 -1.619181 -1.114693 2.645791 2.283657 10.94772 -8.610798 0.6269432 21.36763 7.613406 3.319013 -23.01206 7.935249 0.1720583 -17.42553 11.59827 93.77685 25.14629 -24.65353 -0 0 5.230156 -19.62663 10.64402 9.175936 7.636658 -26.46322 -5.148684 -83.3411 17.47643 8.223458 0 0 -32.43966 9.979912 11.99558 0.7694076
730.0825 98.84103 2670.651 1.177074 -3.041946 13.00509 3.083831 -26.02902 -3.514818 -0 6.013582 -0 -7.565502 5.776467 -2.559835 -5.872263 17.07221 -6.55895 -0 22.63273 -0 -0.6679821 -19.59295 13.3069 -1.216266 -1.901342 2.785529 2.015079 11.39232 -8.655395 0.7002206 21.6575 6.93107 2.83775 -22.01462 7.385243 -0.9425717 -17.39987 11.46045 95.3457 22.94863 -25.70033 -0 0 4.097209 -20.61544 10.63065 8.980106 7.418484 -27.22727 -5.736098 -82.72315 16.29926 7.301586 0 0 -33.4824 9.826962 11.80107 0.6006763
731.388 98.61226 2677.604 0.7337014 -3.146733 13.1208 4.492015 -23.81816 -1.814978 -0 6.835442 -0 -7.739631 5.203003 -3.487278 -5.1964 16.52701 -6.017504 -0 29.45559 -0 -0.9699562 -16.1033 13.10633 -0.33813 -2.756935 3.039755 2.029604 11.85393 -8.940015 0.6818074 21.3224 6.541095 2.468562 -22.13907 7.132557 -1.186618 -17.73825 11.54997 96.28876 22.67833 -26.67103 -0 0 4.034987 -20.42222 10.96847 8.846895 6.692427 -27.2252 -5.766706 -82.9034 15.79446 8.571907 0 0 -33.50184 9.243052 11.21666 1.552459
732.7134 99.32413 2684.48 -0.9968931 -1.837205 13.00031 7.058457 -22.59642 1.668265 -0 10.82051 -0 -8.01549 3.463557 -3.840702 -3.935324 13.60982 -6.935218 -0 38.88728 -0 -1.571235 -10.86297 12.58067 1.06038 -3.123556 3.521771 2.459288 12.33076 -9.529442 0.3434219 19.95682 6.959233 2.550606 -24.14628 7.293164 0.1339672 -18.62068 12.13918 96.11661 25.64987 -27.49988 -0 0 5.491418 -19.03304 12.02734 9.331936 5.282828 -26.29819 -5.161697 -84.1633 16.56676 13.10322 0 0 -32.70193 7.657506 9.85445 4.787901
734.1713 100.973 2690.927 -3.01512 0.4055181 12.84034 9.244318 -21.33803 4.706316 -0 14.94824 -0 -8.37723 1.217196 -2.914298 -2.959786 7.691918 -8.210271 -0 49.60892 -0 -2.82908 -5.416235 11.02846 2.283884 -2.618846 4.451586 3.041193 12.77039 -10.11732 -0.3358984 18.14123 8.134576 3.209796 -27.22397 7.65977 2.76809 -19.78564 13.18158 94.942 31.28014 -27.89637 -0 0 7.864279 -17.72325 13.88017 10.68785 3.528199 -25.09095 -4.396168 -86.31668 18.2961 19.70296 0 0 -31.74544 5.453485 8.080063 9.667807
735.7936 103.0667 2696.859 -3.666312 2.093605 12.70219 9.207645 -18.35888 4.886331 -0 15.66383 -0 -9.021641 -1.377802 -1.143733 -2.937675 0.152257 -8.774894 -0 58.26548 -0 -4.018963 -2.128452 9.158238 2.313921 -1.576649 5.69459 3.249856 12.81644 -10.07223 -0.9421132 17.41581 9.153448 4.025548 -29.10403 7.828699 5.182355 -20.35505 13.99877 93.22176 36.9675 -27.14398 -0 0 9.638188 -17.42141 15.63151 11.98421 2.370691 -24.32827 -3.88667 -88.40947 19.89558 24.71193 0 0 -30.44898 4.273375 7.596541 12.78058
737.3848 104.9913 2702.317 -2.716504 2.091578 12.48158 7.579036 -13.27065 2.94059 -0 13.36857 -0 -10.1177 -4.464521 0.2943632 -3.16634 -6.998663 -8.704285 -0 62.15826 -0 -4.54593 -1.525702 8.657937 1.289128 -0.5558889 6.691784 2.873158 12.343 -9.132214 -1.107662 18.35303 9.29507 4.501117 -28.62422 7.574572 6.077801 -20.10593 14.11448 90.9951 40.18067 -24.53545 -0 0 10.40101 -17.54667 16.10684 12.16277 2.330268 -23.86331 -3.616725 -89.7583 20.61851 26.24682 0 0 -27.8769 4.929382 9.120627 11.97236
738.7746 106.3403 2707.379 -1.061827 0.4301019 12.22397 5.999128 -6.727519 0.9914155 -0 10.35078 -0 -10.9949 -7.385166 0.7930946 -2.703181 -13.24398 -7.848977 -0 60.80315 -0 -4.30582 -2.178792 10.21562 0.1245557 0.1849772 7.271964 2.101026 11.94092 -7.731034 -0.8642702 19.97565 8.634872 4.495833 -26.51292 6.99283 5.451448 -19.94524 13.8429 88.61313 40.13658 -20.58174 -0 0 11.16645 -18.16684 15.48832 11.7543 2.959534 -23.41955 -3.651651 -90.40527 20.22914 25.69222 0 0 -24.42275 6.525246 10.97914 8.914038
739.9778 106.9187 2712.202 0.4896749 -2.095354 11.96455 5.161509 0.3112035 0.2272951 -0 7.857992 -0 -10.9026 -9.558678 0.3299706 -1.166254 -18.70193 -5.820423 -0 54.54055 -0 -3.092786 -2.874808 13.22371 -0.6345188 0.5016498 7.636485 1.210814 12.17419 -6.453556 -0.3786762 21.13853 7.43693 3.941505 -24.02603 6.31631 3.845255 -20.74456 13.57562 86.88573 37.59667 -16.52791 -0 0 12.93154 -19.81484 14.87844 11.91067 3.529592 -22.98412 -4.001223 -90.42068 18.87178 24.98825 0 0 -21.49219 7.693165 11.67249 6.33006
